<svg width="44" height="44" viewBox="0 0 44 44" fill="none" xmlns="http://www.w3.org/2000/svg">
<circle cx="22" cy="22" r="22" fill="#249681"/>
<path d="M28.141 26.0419V17.5173L21.0002 22.5579C20.8991 22.6293 20.7641 22.6293 20.663 22.5579L12.9375 17.1046V26.0419C12.9375 27.3746 14.0217 28.4589 15.3544 28.4589H25.724C27.0567 28.4589 28.141 27.3746 28.141 26.0419Z" fill="white"/>
<path d="M30.266 30.2978V15.3701C30.266 15.3493 30.266 15.3046 30.266 15.3046C30.266 15.3046 29.9567 15.0796 29.9482 15.0803L20.8322 8.64551L11.3984 15.3046L12.8142 16.304H12.8142L20.8322 21.9638L28.2653 16.7169C28.2654 16.7168 28.2655 16.7167 28.2657 16.7167L29.6813 15.7175V30.298C28.3675 30.4439 27.3423 31.5606 27.3423 32.9127C27.3423 34.3637 28.5227 35.5441 29.9736 35.5441C31.4246 35.5441 32.605 34.3637 32.605 32.9127C32.605 31.5605 31.5798 30.4438 30.266 30.2978ZM26.3338 15.4732C26.2767 15.5539 26.1864 15.597 26.0947 15.597C26.0364 15.597 25.9775 15.5796 25.9262 15.5434L20.9559 12.0349C20.824 11.9418 20.7926 11.7594 20.8856 11.6275C20.9788 11.4956 21.1612 11.4641 21.2931 11.5572L26.2635 15.0657C26.3954 15.1589 26.427 15.3413 26.3338 15.4732Z" fill="white"/>
<circle cx="22" cy="22" r="22" fill="#249681"/>
<path d="M28.141 26.0419V17.5173L21.0002 22.5579C20.8991 22.6293 20.7641 22.6293 20.663 22.5579L12.9375 17.1046V26.0419C12.9375 27.3746 14.0217 28.4589 15.3544 28.4589H25.724C27.0567 28.4589 28.141 27.3746 28.141 26.0419Z" fill="white"/>
<path d="M30.266 30.2978V15.3701C30.266 15.3493 30.266 15.3046 30.266 15.3046C30.266 15.3046 29.9567 15.0796 29.9482 15.0803L20.8322 8.64551L11.3984 15.3046L12.8142 16.304H12.8142L20.8322 21.9638L28.2653 16.7169C28.2654 16.7168 28.2655 16.7167 28.2657 16.7167L29.6813 15.7175V30.298C28.3675 30.4439 27.3423 31.5606 27.3423 32.9127C27.3423 34.3637 28.5227 35.5441 29.9736 35.5441C31.4246 35.5441 32.605 34.3637 32.605 32.9127C32.605 31.5605 31.5798 30.4438 30.266 30.2978ZM26.3338 15.4732C26.2767 15.5539 26.1864 15.597 26.0947 15.597C26.0364 15.597 25.9775 15.5796 25.9262 15.5434L20.9559 12.0349C20.824 11.9418 20.7926 11.7594 20.8856 11.6275C20.9788 11.4956 21.1612 11.4641 21.2931 11.5572L26.2635 15.0657C26.3954 15.1589 26.427 15.3413 26.3338 15.4732Z" fill="white"/>
</svg>
