<svg width="20" height="20" viewBox="0 0 20 20" fill="none" xmlns="http://www.w3.org/2000/svg">
<path d="M6.74828 11.7132C9.34696 11.7132 11.4536 9.6066 11.4536 7.00793C11.4536 4.40925 9.34696 2.30261 6.74828 2.30261C4.14961 2.30261 2.04297 4.40925 2.04297 7.00793C2.04297 9.6066 4.14961 11.7132 6.74828 11.7132Z" stroke="#232C43" stroke-width="1.41159" stroke-linecap="round" stroke-linejoin="round"/>
<path d="M14.6636 8.86621C15.405 9.14259 16.0646 9.60144 16.5816 10.2003C17.0986 10.7992 17.4563 11.5188 17.6215 12.2925C17.7867 13.0662 17.7542 13.8691 17.5269 14.627C17.2995 15.3848 16.8848 16.073 16.321 16.6281C15.7572 17.1832 15.0626 17.5871 14.3013 17.8026C13.54 18.018 12.7367 18.038 11.9657 17.8608C11.1946 17.6835 10.4807 17.3147 9.88996 16.7884C9.29922 16.2621 8.85072 15.5954 8.58594 14.8498" stroke="#232C43" stroke-width="1.41159" stroke-linecap="round" stroke-linejoin="round"/>
<path d="M5.96875 5.43945H6.75297V8.57633" stroke="#232C43" stroke-width="1.41159" stroke-linecap="round" stroke-linejoin="round"/>
<path d="M13.5805 11.6191L14.1295 12.1759L11.918 14.3874" stroke="#232C43" stroke-width="1.41159" stroke-linecap="round" stroke-linejoin="round"/>
</svg>
