<svg width="20" height="20" viewBox="0 0 20 20" fill="none" xmlns="http://www.w3.org/2000/svg">
<path d="M9.88578 14.2091C10.3189 14.2091 10.67 13.858 10.67 13.4248C10.67 12.9917 10.3189 12.6406 9.88578 12.6406C9.45267 12.6406 9.10156 12.9917 9.10156 13.4248C9.10156 13.858 9.45267 14.2091 9.88578 14.2091Z" stroke="#232C43" stroke-width="1.41159" stroke-linecap="round" stroke-linejoin="round"/>
<path d="M15.3756 8.71875H4.39656C3.53034 8.71875 2.82812 9.42096 2.82812 10.2872V16.5609C2.82812 17.4272 3.53034 18.1294 4.39656 18.1294H15.3756C16.2419 18.1294 16.9441 17.4272 16.9441 16.5609V10.2872C16.9441 9.42096 16.2419 8.71875 15.3756 8.71875Z" stroke="#232C43" stroke-width="1.41159" stroke-linecap="round" stroke-linejoin="round"/>
<path d="M5.96875 8.71906V6.36641C5.96875 5.32647 6.38186 4.32912 7.11721 3.59377C7.85256 2.85843 8.84991 2.44531 9.88984 2.44531C10.9298 2.44531 11.9271 2.85843 12.6625 3.59377C13.3978 4.32912 13.8109 5.32647 13.8109 6.36641V8.71906" stroke="#232C43" stroke-width="1.41159" stroke-linecap="round" stroke-linejoin="round"/>
</svg>
