<svg width="20" height="16" viewBox="0 0 20 16" fill="none" xmlns="http://www.w3.org/2000/svg">
<path d="M0.869564 1.78019e-05C0.388912 1.78019e-05 0 0.397586 0 0.888905C0 1.12502 0.0917126 1.35073 0.254756 1.51739C0.417799 1.68406 0.638586 1.77781 0.869581 1.77781H19.1304C19.3614 1.77781 19.5822 1.68406 19.7452 1.51739C19.9083 1.35073 20 1.12503 20 0.888905C20 0.652776 19.9083 0.427083 19.7452 0.260417C19.5822 0.0937506 19.3614 0 19.1304 0L0.869564 1.78019e-05ZM6.86956 7.11111C6.38891 7.11111 6 7.50868 6 8C6 8.23611 6.09171 8.46182 6.25476 8.62849C6.4178 8.79515 6.63859 8.8889 6.86958 8.8889H19.1304C19.3614 8.8889 19.5822 8.79515 19.7452 8.62849C19.9083 8.46182 20 8.23613 20 8C20 7.76387 19.9083 7.53818 19.7452 7.37151C19.5822 7.20485 19.3614 7.1111 19.1304 7.1111L6.86956 7.11111ZM0.869564 14.2222C0.388912 14.2222 0 14.6198 0 15.1111C0 15.3472 0.0917126 15.5729 0.254756 15.7396C0.417799 15.9062 0.638586 16 0.869581 16H19.1304C19.3614 16 19.5822 15.9062 19.7452 15.7396C19.9083 15.5729 20 15.3472 20 15.1111C20 14.875 19.9083 14.6493 19.7452 14.4826C19.5822 14.3159 19.3614 14.2222 19.1304 14.2222L0.869564 14.2222Z" fill="#E5F2F3"/>
</svg>
