<svg width="82" height="95" viewBox="0 0 82 95" fill="none" xmlns="http://www.w3.org/2000/svg">
<mask id="path-1-inside-1_329_396" fill="white">
<path d="M0.960938 0H81.9609V43H0.960938V0Z"/>
</mask>
<path d="M0.960938 0V-0.437416H0.523522V0H0.960938ZM81.9609 0H82.3984V-0.437416H81.9609V0ZM0.960938 0V0.437416H81.9609V0V-0.437416H0.960938V0ZM81.9609 0H81.5235V43H81.9609H82.3984V0H81.9609ZM0.960938 43H1.39835V0H0.960938H0.523522V43H0.960938Z" fill="url(#paint0_linear_329_396)" fill-opacity="0.3" mask="url(#path-1-inside-1_329_396)"/>
<mask id="path-3-inside-2_329_396" fill="white">
<path d="M0.960938 95H81.9609V56H0.960938V95Z"/>
</mask>
<path d="M0.960938 95V95.4374H0.523522V95H0.960938ZM81.9609 95H82.3984V95.4374H81.9609V95ZM0.960938 95V94.5626H81.9609V95V95.4374H0.960938V95ZM81.9609 95H81.5235V56H81.9609H82.3984V95H81.9609ZM0.960938 56H1.39835V95H0.960938H0.523522V56H0.960938Z" fill="url(#paint1_linear_329_396)" fill-opacity="0.3" mask="url(#path-3-inside-2_329_396)"/>
<defs>
<linearGradient id="paint0_linear_329_396" x1="41.4609" y1="0" x2="41.4609" y2="43" gradientUnits="userSpaceOnUse">
<stop stop-color="#F0FFC4"/>
<stop offset="1" stop-color="#F0FFC4" stop-opacity="0"/>
</linearGradient>
<linearGradient id="paint1_linear_329_396" x1="41.4609" y1="95" x2="41.4609" y2="56" gradientUnits="userSpaceOnUse">
<stop stop-color="#F0FFC4"/>
<stop offset="1" stop-color="#F0FFC4" stop-opacity="0"/>
</linearGradient>
</defs>
</svg>
